<?xml version="1.0" standalone="no"?>
<!DOCTYPE svg PUBLIC "-//W3C//DTD SVG 20010904//EN"
 "http://www.w3.org/TR/2001/REC-SVG-20010904/DTD/svg10.dtd">
<svg version="1.0" xmlns="http://www.w3.org/2000/svg"
 width="800.000000pt" height="800.000000pt" viewBox="0 0 800.000000 800.000000"
 preserveAspectRatio="xMidYMid meet">

<g transform="translate(0.000000,800.000000) scale(0.100000,-0.100000)"
fill="#000000" stroke="none">
<path d="M3815 6590 c-1577 -103 -2781 -862 -3094 -1951 -55 -191 -73 -315
-78 -546 -6 -243 4 -370 47 -583 209 -1043 1115 -1788 2452 -2019 314 -54 460
-65 883 -65 429 0 548 8 885 60 581 90 1133 257 1633 496 l127 61 0 518 0 518
-57 -20 c-149 -51 -415 -107 -623 -130 -139 -15 -479 -15 -605 0 -406 49 -706
167 -920 362 -120 111 -226 286 -265 444 -61 241 -35 555 63 767 167 363 539
583 1075 639 253 26 636 -2 927 -67 95 -21 335 -89 388 -109 16 -7 17 21 17
489 l0 496 -232 114 c-260 127 -392 181 -648 267 -374 124 -758 204 -1170 244
-198 19 -625 27 -805 15z m-1023 -1014 c258 -50 493 -204 640 -420 179 -262
217 -613 98 -899 -137 -330 -466 -571 -831 -609 -114 -12 -201 -4 -272 25
l-37 16 0 266 0 266 48 -8 c88 -15 262 -9 320 10 128 45 232 151 268 275 26
88 16 220 -22 302 -57 121 -171 205 -311 230 -170 31 -360 -76 -445 -248 l-33
-67 -6 -320 c-4 -176 -7 -679 -8 -1119 l-1 -798 -57 7 c-138 16 -295 93 -374
183 -23 26 -55 74 -73 107 l-31 60 -3 975 c-3 1077 -5 1032 61 1195 113 279
383 502 692 570 80 18 286 18 377 1z"/>
<path d="M5910 4315 l0 -255 185 0 185 0 0 -305 0 -305 370 0 370 0 2 303 3
302 163 3 162 2 0 255 0 255 -720 0 -720 0 0 -255z"/>
</g>
</svg>
