<svg width="29" height="28" viewBox="0 0 29 28" fill="none" xmlns="http://www.w3.org/2000/svg">
<path d="M27.327 9.42303H0.740479C0.740479 9.38937 0.774129 9.35572 0.774129 9.35572C2.49048 4.47592 6.86548 0.807647 12.1155 0.100916H15.8847C21.1684 0.807647 25.5434 4.44226 27.2261 9.35572C27.2934 9.35572 27.2934 9.38937 27.327 9.42303Z" fill="white"/>
<path d="M28.0673 14C28.0673 15.6154 27.7981 17.1634 27.2933 18.5769C27.2933 18.6106 27.2596 18.6442 27.2596 18.6442H0.80769C0.80769 18.6106 0.774034 18.5769 0.774034 18.5769C0.269227 17.1634 0 15.6154 0 14C0 12.3846 0.269227 10.8365 0.774034 9.42305C0.774034 9.3894 0.80769 9.35575 0.80769 9.35575H27.2933C27.2933 9.3894 27.3269 9.42305 27.3269 9.42305C27.7981 10.8365 28.0673 12.3846 28.0673 14Z" fill="#011FA7"/>
<path d="M27.3268 18.5769C27.3268 18.6106 27.2932 18.6442 27.2932 18.6442C25.5769 23.524 21.2018 27.1923 15.9518 27.899H12.1826C6.89896 27.1923 2.52397 23.5577 0.841273 18.6442C0.841273 18.6106 0.807617 18.5769 0.807617 18.5769H27.3268Z" fill="#C50000"/>
<path d="M27.327 9.42307C27.327 9.38942 27.2933 9.35577 27.2933 9.35577C25.577 4.47596 21.202 0.807693 15.952 0.100963C15.3462 0.0336549 14.7068 0 14.0673 0C13.4279 0 12.7885 0.0336549 12.1827 0.100963C6.89908 0.807693 2.52408 4.44231 0.841387 9.35577C0.841387 9.38942 0.807731 9.42307 0.807731 9.42307C0.302923 10.8365 0.0336914 12.3846 0.0336914 14C0.0336914 15.6154 0.302923 17.1635 0.807731 18.5769C0.807731 18.6106 0.841387 18.6442 0.841387 18.6442C2.55773 23.524 6.93273 27.1923 12.1827 27.899C12.7885 27.9663 13.4279 28 14.0673 28C14.7068 28 15.3462 27.9663 15.952 27.899C21.2356 27.1923 25.6106 23.5577 27.2933 18.6442C27.2933 18.6106 27.327 18.5769 27.327 18.5769C27.8318 17.1635 28.101 15.6154 28.101 14C28.0674 12.3846 27.7981 10.8365 27.327 9.42307ZM26.4183 18.6442C24.5337 23.6587 19.6875 27.1923 14.0673 27.1923C8.4135 27.1923 3.601 23.625 1.71638 18.6442C1.71638 18.6106 1.68273 18.5769 1.68273 18.5769C1.14427 17.1635 0.875038 15.6154 0.875038 14C0.875038 12.3846 1.14427 10.8365 1.68273 9.42307C1.68273 9.38942 1.71638 9.35577 1.71638 9.35577C3.601 4.34135 8.44715 0.807695 14.0673 0.807695C19.7212 0.807695 24.5337 4.375 26.4183 9.35577C26.4183 9.38942 26.452 9.42307 26.452 9.42307C26.9904 10.8365 27.2597 12.3846 27.2597 14C27.2597 15.6154 26.9904 17.1635 26.452 18.5769C26.4183 18.6106 26.4183 18.6106 26.4183 18.6442Z" fill="url(#paint0_radial_6666_2)"/>
<defs>
<radialGradient id="paint0_radial_6666_2" cx="0" cy="0" r="1" gradientUnits="userSpaceOnUse" gradientTransform="translate(14.0445 13.9929) scale(14.0536 14.0536)">
<stop offset="0.9677" stop-color="white"/>
<stop offset="1" stop-color="#ED1C24"/>
</radialGradient>
</defs>
</svg>
