<svg width="130" height="27" viewBox="0 0 130 27" fill="none" xmlns="http://www.w3.org/2000/svg">
<path d="M60.8881 3.99424C60.3831 3.77639 59.7699 3.66747 58.8681 3.59485C58.1467 3.55854 57.2809 3.55854 56.271 3.55854C55.2249 3.55854 54.4313 3.55854 53.7099 3.59485C51.1849 3.77639 50.2471 4.82935 50.2471 7.51619V12.8536C50.2471 14.0881 50.4274 15.5767 51.7981 16.2303C52.8081 16.7386 54.1788 16.7386 56.271 16.7386C57.2809 16.7386 58.1467 16.7386 58.8681 16.7023C59.6977 16.666 60.347 16.5208 60.8881 16.3029C62.1145 15.7946 62.7277 14.6327 62.7277 12.781V7.44357C62.6916 5.70075 62.0784 4.53887 60.8881 3.99424ZM60.4913 7.5525V12.8173C60.4913 14.0518 60.2749 14.1607 59.9863 14.2696C59.4813 14.4875 58.2188 14.5238 56.6677 14.5238H55.9102C54.2149 14.5238 53.1688 14.4875 52.8081 14.3059C52.6638 14.2333 52.4474 14.1244 52.4474 12.8173V7.5525C52.4474 6.24539 52.6638 6.13646 52.7721 6.06384C53.1688 5.84599 54.2149 5.80968 55.9102 5.80968H56.6677C58.2188 5.80968 59.4452 5.84599 59.9863 6.06384C60.2388 6.17277 60.4913 6.28169 60.4913 7.5525Z" fill="#414042"/>
<path d="M75.0634 3.66736H64.4224C63.8092 3.66736 63.3042 4.17568 63.3042 4.79293C63.3042 5.41018 63.8092 5.9185 64.4224 5.9185H68.5706V15.6492C68.5706 16.2665 69.0756 16.7748 69.6888 16.7748C70.302 16.7748 70.807 16.2665 70.807 15.6492V5.88219H75.0994C75.7127 5.88219 76.2177 5.37387 76.2177 4.75662C76.1455 4.13937 75.6766 3.66736 75.0634 3.66736Z" fill="#414042"/>
<path d="M87.725 3.99424C87.22 3.77639 86.6068 3.66747 85.705 3.59485C84.9836 3.55854 84.1179 3.55854 83.1079 3.55854C82.0618 3.55854 81.2682 3.55854 80.5468 3.59485C78.0218 3.77639 77.084 4.82935 77.084 7.51619V12.8536C77.084 14.0881 77.2643 15.5767 78.635 16.2303C79.645 16.7386 81.0157 16.7386 83.1079 16.7386C84.1179 16.7386 84.9836 16.7386 85.705 16.7023C86.5346 16.666 87.1839 16.5208 87.725 16.3029C88.9514 15.7946 89.5285 14.6327 89.5285 12.781V7.44357C89.5646 5.70075 88.9514 4.53887 87.725 3.99424ZM87.3643 7.5525V12.8173C87.3643 14.0518 87.1478 14.1607 86.8593 14.2696C86.3543 14.4875 85.0918 14.5238 83.5407 14.5238H82.7832C81.0879 14.5238 80.0418 14.4875 79.6811 14.3059C79.5368 14.2333 79.3204 14.1244 79.3204 12.8173V7.5525C79.3204 6.24539 79.5368 6.13646 79.645 6.06384C80.0779 5.84599 81.3764 5.80968 82.7832 5.80968H83.5407C85.0918 5.80968 86.3182 5.84599 86.8593 6.06384C87.1118 6.17277 87.3643 6.28169 87.3643 7.5525Z" fill="#414042"/>
<path d="M101.901 3.66736H91.2598C90.6466 3.66736 90.1416 4.17568 90.1416 4.79293C90.1416 5.41018 90.6466 5.9185 91.2598 5.9185H95.408V15.6492C95.408 16.2665 95.913 16.7748 96.5262 16.7748C97.1394 16.7748 97.6444 16.2665 97.6444 15.6492V5.88219H101.937C102.55 5.88219 103.055 5.37387 103.055 4.75662C103.019 4.13937 102.514 3.66736 101.901 3.66736Z" fill="#414042"/>
<path d="M107.961 9.00484C107.347 9.00484 106.662 9.51316 106.662 10.1304C106.662 10.7477 107.347 11.256 107.961 11.256H113.047C113.66 11.256 114.165 10.7477 114.165 10.1304C114.165 9.51316 113.66 9.00484 113.047 9.00484H107.961Z" fill="#414042"/>
<path d="M129.639 14.8142L124.95 10.1667L129.639 5.51917C129.856 5.30132 129.964 5.01085 129.964 4.72038C129.964 4.42991 129.856 4.21206 129.747 4.03052L129.675 3.92159C129.387 3.63112 129.026 3.59481 128.846 3.59481C128.557 3.59481 128.268 3.70374 128.052 3.92159L123.363 8.56911L118.674 3.92159C118.457 3.74004 118.169 3.63112 117.916 3.63112C117.303 3.63112 116.798 4.13944 116.798 4.75669C116.798 5.04716 116.906 5.33763 117.122 5.55548L121.848 10.203L117.122 14.8505C116.906 15.0684 116.798 15.3588 116.798 15.6493C116.798 16.2666 117.303 16.7749 117.916 16.7749C118.241 16.7749 118.493 16.666 118.71 16.4481L123.399 11.8006L128.088 16.4118C128.305 16.6296 128.593 16.7386 128.882 16.7386C129.206 16.7386 129.459 16.6297 129.711 16.3755C129.892 16.1576 130 15.9035 130 15.613C129.964 15.3225 129.856 15.0684 129.639 14.8142Z" fill="#414042"/>
<path d="M114.886 14.5237C114.886 14.5237 110.233 14.5237 107.456 14.5237C106.265 14.5237 106.157 14.3058 106.049 13.979C105.796 13.3618 105.76 11.9457 105.76 10.1303C105.76 8.16964 105.76 6.93514 106.013 6.39051C106.121 6.13635 106.229 5.9185 107.456 5.9185H114.706C115.319 5.9185 115.824 5.41018 115.824 4.79293C115.824 4.17568 115.319 3.66736 114.706 3.66736H107.456C105.652 3.66736 104.498 4.2483 103.957 5.5191C103.74 6.06373 103.596 6.71729 103.56 7.51608C103.524 8.24226 103.524 9.11367 103.524 10.1303C103.524 12.3451 103.56 13.7612 103.993 14.8504C104.498 16.1213 105.688 16.7748 107.456 16.7748H114.886C115.463 16.7748 115.932 16.3391 116.005 15.6855C116.005 15.032 115.5 14.5237 114.886 14.5237Z" fill="#414042"/>
<path d="M47.0364 3.70366C46.7479 3.66736 46.4954 3.66736 46.2068 3.66736H39.6419C39.3533 3.66736 39.1008 3.77628 38.8844 3.95783L38.8483 3.99413C38.6679 4.21199 38.5597 4.46615 38.5597 4.75662V9.73092H33.3294C32.7523 9.73092 32.5719 9.69461 32.4998 9.6583C32.4637 9.58568 32.2833 9.22259 32.2833 8.06071V7.95179C32.2833 6.82622 32.4276 6.46313 32.4998 6.39051C32.5719 6.3542 32.7523 6.31789 33.2573 6.31789H36.3594C36.9726 6.31789 37.4776 5.80957 37.4776 5.19232C37.4776 4.57507 36.9726 4.06675 36.3594 4.06675H33.4016C33.0048 4.06675 32.608 4.06675 32.2473 4.10306C31.7062 4.21199 31.3094 4.39353 30.9848 4.72031C30.2273 5.44648 30.083 6.53575 30.083 7.9881C30.083 9.47676 30.2273 10.566 30.9848 11.2559C31.3455 11.5827 31.7784 11.8005 32.2833 11.8731C32.5719 11.9094 32.8244 11.9094 33.113 11.9094H38.5597V15.5766C38.5597 16.1939 39.0647 16.7022 39.6779 16.7022C40.2911 16.7022 40.7961 16.1939 40.7961 15.5766V5.84588H46.0265C46.6036 5.84588 46.7839 5.88219 46.8561 5.9185C46.8922 5.99112 47.0725 6.3542 47.0725 7.51608V7.62501C47.0725 8.75058 46.9282 9.11367 46.8561 9.18629C46.7839 9.22259 46.6036 9.2589 46.0986 9.2589H42.9965C42.3833 9.2589 41.8783 9.76723 41.8783 10.3845C41.8783 11.0017 42.3833 11.51 42.9965 11.51H45.9543C46.3511 11.51 46.7479 11.51 47.1086 11.4737C47.6497 11.3648 48.0464 11.1833 48.3711 10.8565C49.1286 10.1303 49.2729 9.04105 49.2729 7.5887C49.2729 6.10004 49.1286 5.01078 48.3711 4.32091C47.9743 3.95783 47.5414 3.73997 47.0364 3.70366Z" fill="#414042"/>
<path d="M22.6527 0.762484C21.0295 0.0363089 17.3863 0 12.7692 0H10.4606C5.44674 0 2.30855 0.108926 1.08213 0.726175C0.541067 1.01664 0 1.59759 0 5.30108V20.9138C0 24.8352 0.61321 25.1983 1.11821 25.4887C2.30855 26.0697 5.44674 26.1786 10.4246 26.1786H12.6249C17.2781 26.1786 20.9934 26.106 22.5445 25.4161C23.5184 24.9804 24.1316 24.5447 24.1316 20.9138V5.30108C24.2037 1.45235 23.4462 1.12557 22.6527 0.762484Z" fill="#F15D22"/>
<path d="M12.7686 7.40704V9.94865V12.2724V23.165C12.7686 23.5281 12.8407 23.8549 12.985 24.0728C13.0571 24.1817 13.1653 24.2543 13.2375 24.2543C13.3096 24.2543 13.3818 24.218 13.4178 24.1454L16.9167 20.6597C17.0971 20.4782 17.2053 20.1151 17.2053 19.6794V2.43274C17.2053 2.03334 16.8807 1.4161 16.7003 1.77918L12.7686 7.40704ZM16.7003 1.77918L15.1853 3.26784L13.2375 5.51898C13.2375 5.51898 13.3818 5.30113 13.2375 5.51898C12.7686 6.31778 12.7686 7.18919 12.7686 7.55227L16.7003 1.77918ZM13.8868 21.3496V11.9093V9.58557V7.15288L16.1592 4.64757V19.2074L13.8868 21.3496Z" fill="white"/>
<path d="M11.0733 23.9274C4.86903 15.649 15.1493 10.13 9.81078 4.21172C11.5061 10.2027 6.13152 11.5461 6.27581 16.1573C6.38402 19.6066 13.0932 26.6505 11.0733 23.9274Z" fill="white"/>
<path d="M31.8149 25.8162V22.5121H30.6606V22.149H33.4381V22.5121H32.2838V25.8162H31.8149Z" fill="#414042"/>
<path d="M33.979 25.8162V22.149H36.2154V22.5121H34.4479V23.7103H35.9268V24.037H34.4479V25.4531H36.2876V25.8162H33.979Z" fill="#414042"/>
<path d="M37.2259 23.0204C37.0455 22.7299 36.8652 22.4394 36.6848 22.149H37.1898C37.3341 22.4031 37.4784 22.6573 37.6227 22.8752C37.7669 23.1293 37.9112 23.3472 38.0555 23.6013L38.9212 22.149H39.4262C39.2459 22.4394 39.0294 22.7299 38.8491 23.0567C38.6687 23.3472 38.4884 23.6376 38.2719 23.9644L39.4262 25.8525H38.9212C38.7769 25.5983 38.5966 25.3078 38.4523 25.0537C38.308 24.7995 38.1277 24.509 37.9834 24.2549L37.0455 25.8525H36.5405L37.6948 23.9281C37.5866 23.6013 37.4062 23.3109 37.2259 23.0204Z" fill="#414042"/>
<path d="M42.0954 25.8153V24.0725H40.4001C40.4001 24.3629 40.4001 24.6534 40.4001 24.9439C40.4001 25.2344 40.4001 25.5248 40.4001 25.8153H39.9312V22.1481H40.4001C40.4001 22.4023 40.4001 22.6564 40.4001 22.9106C40.4001 23.1648 40.4001 23.4189 40.4001 23.6731H42.0954V22.1118H42.5643V25.779H42.0954V25.8153Z" fill="#414042"/>
<path d="M46.3873 24.0003C46.3873 24.2545 46.3513 24.5087 46.2791 24.7265C46.207 24.9444 46.1348 25.1622 45.9906 25.3075C45.8823 25.489 45.702 25.5979 45.5216 25.7069C45.3413 25.8158 45.1249 25.8521 44.8724 25.8521C44.5838 25.8521 44.3313 25.8158 44.1509 25.7069C43.9706 25.6342 43.7902 25.489 43.682 25.3438C43.5738 25.1985 43.4656 24.9807 43.3934 24.7628C43.3213 24.545 43.3213 24.2908 43.3213 24.0003C43.3213 23.7462 43.3574 23.492 43.3934 23.2742C43.4656 23.0563 43.5377 22.8385 43.6459 22.6569C43.7541 22.4754 43.9345 22.3301 44.1149 22.2212C44.3313 22.1123 44.5477 22.076 44.8363 22.076C45.1249 22.076 45.3774 22.1123 45.5577 22.2212C45.7381 22.3301 45.9184 22.4754 46.0266 22.6569C46.1348 22.8385 46.207 23.02 46.2791 23.2742C46.3513 23.492 46.3873 23.7462 46.3873 24.0003ZM45.9184 24.0003C45.9184 23.8188 45.9184 23.6373 45.8823 23.4557C45.8463 23.2742 45.8102 23.0926 45.7381 22.9474C45.6659 22.8022 45.5577 22.6569 45.4134 22.5843C45.2691 22.4754 45.0888 22.4391 44.8724 22.4391C44.6559 22.4391 44.4756 22.4754 44.3313 22.5843C44.187 22.6569 44.0788 22.8022 44.0066 22.9474C43.9345 23.0926 43.8624 23.2742 43.8263 23.4557C43.7902 23.6373 43.7902 23.8551 43.7902 24.0367C43.7902 24.5087 43.8624 24.9081 44.0427 25.1622C44.2231 25.4164 44.4756 25.5253 44.8724 25.5253C45.0527 25.5253 45.197 25.489 45.3413 25.4164C45.4856 25.3438 45.5938 25.2348 45.6659 25.0896C45.7381 24.9444 45.8102 24.7991 45.8463 24.6176C45.8823 24.3997 45.9184 24.2182 45.9184 24.0003Z" fill="#414042"/>
<path d="M49.2731 25.8162V22.4758H48.0828V22.8388C48.0828 23.1656 48.0467 23.4924 48.0467 23.7466C48.0467 24.0007 48.0107 24.2549 47.9746 24.4727C47.9385 24.6906 47.9024 24.8721 47.8664 25.0537C47.8303 25.2352 47.7582 25.3441 47.686 25.4894C47.6139 25.5983 47.5057 25.7072 47.3614 25.7799C47.2171 25.8525 47.0728 25.8888 46.8925 25.9251L46.8203 25.5983C47.0367 25.5257 47.181 25.4531 47.2892 25.3441C47.3974 25.2352 47.4696 25.09 47.5417 24.9084C47.6139 24.7269 47.6499 24.4727 47.6499 24.1823C47.686 23.8918 47.686 23.4924 47.7221 23.0204L47.7582 22.149H49.7781V25.8162H49.2731Z" fill="#414042"/>
<path d="M53.5294 24.0003C53.5294 24.2545 53.4934 24.5087 53.4212 24.7265C53.3491 24.9444 53.2769 25.1622 53.1326 25.3075C53.0244 25.489 52.8441 25.5979 52.6637 25.7069C52.4834 25.8158 52.2669 25.8521 52.0144 25.8521C51.7259 25.8521 51.4734 25.8158 51.293 25.7069C51.1127 25.6342 50.9323 25.489 50.8241 25.3438C50.6798 25.1985 50.6077 24.9807 50.5355 24.7628C50.4634 24.545 50.4634 24.2908 50.4634 24.0003C50.4634 23.7462 50.4994 23.492 50.5355 23.2742C50.6077 23.0563 50.6798 22.8385 50.788 22.6569C50.8962 22.4754 51.0766 22.3301 51.2569 22.2212C51.4734 22.1123 51.6898 22.076 51.9784 22.076C52.2669 22.076 52.5194 22.1123 52.6998 22.2212C52.8801 22.3301 53.0605 22.4754 53.1687 22.6569C53.2769 22.8385 53.3491 23.02 53.4212 23.2742C53.5294 23.492 53.5294 23.7462 53.5294 24.0003ZM53.0605 24.0003C53.0605 23.8188 53.0605 23.6373 53.0244 23.4557C52.9884 23.2742 52.9523 23.0926 52.8801 22.9474C52.808 22.8022 52.6998 22.6569 52.5555 22.5843C52.4112 22.4754 52.2309 22.4391 52.0144 22.4391C51.798 22.4391 51.6177 22.4754 51.4734 22.5843C51.3291 22.6569 51.2209 22.8022 51.1487 22.9474C51.0766 23.0926 51.0044 23.2742 50.9684 23.4557C50.9323 23.6373 50.9323 23.8551 50.9323 24.0367C50.9323 24.5087 51.0044 24.9081 51.1848 25.1622C51.3652 25.4164 51.6177 25.5253 52.0144 25.5253C52.1948 25.5253 52.3391 25.489 52.4834 25.4164C52.6277 25.3438 52.7359 25.2348 52.808 25.0896C52.8801 24.9444 52.9523 24.7991 52.9884 24.6176C53.0605 24.3997 53.0605 24.2182 53.0605 24.0003Z" fill="#414042"/>
<path d="M54.2876 25.8162V22.149H56.4879V22.5121H54.7205V25.8162H54.2876Z" fill="#414042"/>
<path d="M59.9144 22.1481V25.8153H59.4815V22.838L57.678 25.8153H57.2451V22.1481H57.678V25.0891L59.4815 22.1118L59.9144 22.1481Z" fill="#414042"/>
<path d="M63.449 22.1481V25.8153H63.0162V22.838L61.2126 25.8153H60.7798V22.1481H61.2126V25.0891L63.0162 22.1118L63.449 22.1481Z" fill="#414042"/>
<path d="M67.3092 23.782C67.5257 23.8183 67.6699 23.9272 67.8142 24.1088C67.9224 24.254 67.9946 24.4719 67.9946 24.6897C67.9946 24.8713 67.9585 25.0528 67.8864 25.198C67.8142 25.3433 67.706 25.4522 67.5617 25.5611C67.4174 25.6701 67.2732 25.7427 67.1289 25.779C66.9485 25.8153 66.7682 25.8516 66.5878 25.8516C66.4074 25.8516 66.191 25.8516 65.9746 25.8153C65.7582 25.779 65.5778 25.7427 65.3975 25.6701L65.5057 25.3433C65.7221 25.4159 65.8664 25.4522 66.0467 25.4885C66.191 25.5248 66.3353 25.5248 66.4435 25.5248C66.8042 25.5248 67.0928 25.4522 67.2732 25.307C67.4535 25.1617 67.5617 24.9802 67.5617 24.726C67.5617 24.6171 67.5257 24.5082 67.4896 24.4356C67.4535 24.3629 67.3814 24.2903 67.3092 24.2177C67.2371 24.1451 67.1289 24.1088 67.0207 24.0725C66.9124 24.0362 66.8042 24.0362 66.6599 24.0362H66.2271V23.6731H66.6599C66.8042 23.6731 66.9124 23.6731 67.0207 23.6368C67.1289 23.6005 67.201 23.5642 67.2732 23.4915C67.3453 23.4189 67.3814 23.3463 67.4535 23.2737C67.4896 23.2011 67.5257 23.1284 67.5257 23.0195C67.5257 22.8017 67.4535 22.6564 67.3092 22.5838C67.1649 22.5112 66.9846 22.4386 66.7321 22.4386C66.6239 22.4386 66.5157 22.4386 66.3353 22.4749C66.155 22.5112 65.9746 22.5475 65.7942 22.6564L65.686 22.366C65.7582 22.3297 65.8303 22.2933 65.9025 22.257C65.9746 22.2207 66.0828 22.1844 66.191 22.1844C66.2992 22.1481 66.3714 22.1481 66.4796 22.1481C66.5878 22.1481 66.696 22.1118 66.7682 22.1118C66.9485 22.1118 67.0928 22.1118 67.2371 22.1481C67.3814 22.1844 67.5257 22.2207 67.6339 22.2933C67.7421 22.366 67.8503 22.4386 67.8864 22.5838C67.9585 22.6927 67.9946 22.838 67.9946 22.9832C67.9946 23.0558 67.9946 23.1284 67.9585 23.2011C67.9224 23.2737 67.8864 23.3463 67.8503 23.4189C67.8142 23.4915 67.7421 23.5642 67.6699 23.6005C67.4896 23.6731 67.4174 23.7094 67.3092 23.782Z" fill="#414042"/>
<path d="M70.8078 25.8162C70.7717 25.6709 70.6995 25.4894 70.6635 25.3441C70.6274 25.1989 70.5553 25.0174 70.5192 24.8721H69.0763C69.0403 25.0174 68.9681 25.1989 68.9321 25.3441C68.896 25.4894 68.8238 25.6709 68.7878 25.8162H68.3188C68.5353 25.1626 68.7517 24.509 68.9321 23.8918C69.1485 23.2745 69.3288 22.6936 69.5092 22.149H70.0863L71.2767 25.8162H70.8078ZM70.411 24.509C70.3388 24.2549 70.2306 23.9644 70.1585 23.6739C70.0863 23.3835 69.9781 23.1293 69.906 22.8752L69.7978 22.5121L69.6895 22.8752C69.6535 23.0204 69.6174 23.1293 69.5813 23.2746C69.5453 23.3835 69.5092 23.5287 69.4731 23.6739C69.437 23.8192 69.401 23.9281 69.3649 24.0733C69.3288 24.2186 69.2928 24.3638 69.2206 24.509H70.411Z" fill="#414042"/>
<path d="M71.7456 22.149H72.1785V25.4894H73.5131V22.149H73.982V25.4894H75.2806V22.149H75.7495V25.4894H76.1102V26.7239H75.7495V25.8162H71.7456V22.149Z" fill="#414042"/>
<path d="M79.3929 22.1481V25.8153H78.96V22.838L77.1565 25.8153H76.7236V22.1481H77.1565V25.0891L78.96 22.1118L79.3929 22.1481Z" fill="#414042"/>
<path d="M81.1245 25.8162V22.5121H79.9702V22.149H82.7477V22.5121H81.5934V25.8162H81.1245Z" fill="#414042"/>
<path d="M85.4167 25.8153V24.0725H83.7214C83.7214 24.3629 83.7214 24.6534 83.7214 24.9439C83.7214 25.2344 83.7214 25.5248 83.7214 25.8153H83.2524V22.1481H83.7214C83.7214 22.4023 83.7214 22.6564 83.7214 22.9106C83.7214 23.1648 83.7214 23.4189 83.7214 23.6731H85.4167V22.1118H85.8856V25.779H85.4167V25.8153Z" fill="#414042"/>
<path d="M89.7096 24.0003C89.7096 24.2545 89.6735 24.5087 89.6014 24.7265C89.5292 24.9444 89.4571 25.1622 89.3128 25.3075C89.2046 25.489 89.0242 25.5979 88.8439 25.7069C88.6635 25.8158 88.4471 25.8521 88.1946 25.8521C87.906 25.8521 87.6535 25.8158 87.4732 25.7069C87.2928 25.6342 87.1125 25.489 87.0043 25.3438C86.8961 25.1985 86.7878 24.9807 86.7157 24.7628C86.6436 24.545 86.6436 24.2908 86.6436 24.0003C86.6436 23.7462 86.6796 23.492 86.7157 23.2742C86.7878 23.0563 86.86 22.8385 86.9682 22.6569C87.0764 22.4754 87.2568 22.3301 87.4371 22.2212C87.6535 22.1123 87.87 22.076 88.1585 22.076C88.4471 22.076 88.6996 22.1123 88.88 22.2212C89.0603 22.3301 89.2407 22.4754 89.3489 22.6569C89.4571 22.8385 89.5292 23.02 89.6014 23.2742C89.6735 23.492 89.7096 23.7462 89.7096 24.0003ZM89.2407 24.0003C89.2407 23.8188 89.2407 23.6373 89.2046 23.4557C89.1685 23.2742 89.1325 23.0926 89.0603 22.9474C88.9882 22.8022 88.88 22.6569 88.7357 22.5843C88.5914 22.4754 88.411 22.4391 88.1946 22.4391C87.9782 22.4391 87.7978 22.4754 87.6535 22.5843C87.5093 22.6569 87.401 22.8022 87.3289 22.9474C87.2568 23.0926 87.1846 23.2742 87.1485 23.4557C87.1125 23.6373 87.1125 23.8551 87.1125 24.0367C87.1125 24.5087 87.1846 24.9081 87.365 25.1622C87.5453 25.4164 87.7978 25.5253 88.1946 25.5253C88.375 25.5253 88.5193 25.489 88.6635 25.4164C88.8078 25.3438 88.916 25.2348 88.9882 25.0896C89.0603 24.9444 89.1325 24.7991 89.1685 24.6176C89.2046 24.3997 89.2407 24.2182 89.2407 24.0003Z" fill="#414042"/>
<path d="M90.4663 25.8162V22.149H92.6667V22.5121H90.8992V25.8162H90.4663Z" fill="#414042"/>
<path d="M95.8414 24.0003C95.8414 24.2545 95.8054 24.5087 95.7332 24.7265C95.6611 24.9444 95.5889 25.1622 95.4447 25.3075C95.3364 25.489 95.1561 25.5979 94.9757 25.7069C94.7954 25.8158 94.5789 25.8521 94.3265 25.8521C94.0379 25.8521 93.7854 25.8158 93.605 25.7069C93.4247 25.6342 93.2443 25.489 93.1361 25.3438C93.0279 25.1985 92.9197 24.9807 92.8475 24.7628C92.7754 24.545 92.7754 24.2908 92.7754 24.0003C92.7754 23.7462 92.8115 23.492 92.8475 23.2742C92.9197 23.0563 92.9918 22.8385 93.1 22.6569C93.2082 22.4754 93.3886 22.3301 93.569 22.2212C93.7854 22.1123 94.0018 22.076 94.2904 22.076C94.579 22.076 94.8315 22.1123 95.0118 22.2212C95.1922 22.3301 95.3725 22.4754 95.4807 22.6569C95.5889 22.8385 95.6611 23.02 95.7332 23.2742C95.8415 23.492 95.8414 23.7462 95.8414 24.0003ZM95.3725 24.0003C95.3725 23.8188 95.3725 23.6373 95.3365 23.4557C95.3004 23.2742 95.2643 23.0926 95.1922 22.9474C95.12 22.8022 95.0118 22.6569 94.8675 22.5843C94.7232 22.4754 94.5429 22.4391 94.3265 22.4391C94.11 22.4391 93.9297 22.4754 93.7854 22.5843C93.6411 22.6569 93.5329 22.8022 93.4607 22.9474C93.3886 23.0926 93.3165 23.2742 93.2804 23.4557C93.2443 23.6373 93.2443 23.8551 93.2443 24.0367C93.2443 24.5087 93.3165 24.9081 93.4968 25.1622C93.6772 25.4164 93.9297 25.5253 94.3265 25.5253C94.5068 25.5253 94.6511 25.489 94.7954 25.4164C94.9397 25.3438 95.0479 25.2348 95.12 25.0896C95.1922 24.9444 95.2643 24.7991 95.3004 24.6176C95.3725 24.3997 95.3725 24.2182 95.3725 24.0003Z" fill="#414042"/>
<path d="M101.035 24.0003C101.035 24.2545 100.999 24.5087 100.927 24.7265C100.855 24.9444 100.783 25.1622 100.639 25.3075C100.494 25.489 100.35 25.5979 100.17 25.7069C99.9892 25.8158 99.7728 25.8521 99.5203 25.8521C99.2317 25.8521 98.9792 25.8158 98.7989 25.7069C98.6185 25.6342 98.4382 25.489 98.3299 25.3438C98.1857 25.1985 98.1135 24.9807 98.0414 24.7628C97.9692 24.545 97.9692 24.2908 97.9692 24.0003C97.9692 23.7462 98.0053 23.492 98.0414 23.2742C98.1135 23.0563 98.1857 22.8385 98.2939 22.6569C98.4021 22.4754 98.5825 22.3301 98.7628 22.2212C98.9792 22.1123 99.1957 22.076 99.4842 22.076C99.7728 22.076 100.025 22.1123 100.206 22.2212C100.386 22.3301 100.566 22.4754 100.675 22.6569C100.783 22.8385 100.855 23.02 100.927 23.2742C100.999 23.492 101.035 23.7462 101.035 24.0003ZM100.53 24.0003C100.53 23.8188 100.53 23.6373 100.494 23.4557C100.458 23.2742 100.422 23.0926 100.35 22.9474C100.278 22.8022 100.17 22.6569 100.025 22.5843C99.881 22.4754 99.7007 22.4391 99.4842 22.4391C99.2678 22.4391 99.0874 22.4754 98.9432 22.5843C98.7989 22.6569 98.6907 22.8022 98.6185 22.9474C98.5464 23.0926 98.4742 23.2742 98.4382 23.4557C98.4021 23.6373 98.4021 23.8551 98.4021 24.0367C98.4021 24.5087 98.4742 24.9081 98.6546 25.1622C98.8349 25.4164 99.0874 25.5253 99.4842 25.5253C99.6646 25.5253 99.8089 25.489 99.9532 25.4164C100.097 25.3438 100.206 25.2348 100.278 25.0896C100.35 24.9444 100.422 24.7991 100.458 24.6176C100.53 24.3997 100.53 24.2182 100.53 24.0003Z" fill="#414042"/>
<path d="M103.272 22.076C103.488 22.076 103.632 22.076 103.813 22.1123C103.957 22.1486 104.101 22.1849 104.21 22.2212L104.101 22.548C103.957 22.5117 103.813 22.4754 103.669 22.4391C103.524 22.4391 103.416 22.4028 103.308 22.4028C103.091 22.4028 102.947 22.4391 102.803 22.5117C102.659 22.5843 102.55 22.6932 102.442 22.8022C102.334 22.9474 102.262 23.0926 102.226 23.3105C102.19 23.492 102.154 23.7099 102.154 23.964C102.154 24.1819 102.154 24.3634 102.19 24.545C102.226 24.7265 102.298 24.8718 102.37 25.017C102.442 25.1622 102.586 25.2712 102.731 25.3438C102.875 25.4164 103.091 25.4527 103.308 25.4527C103.344 25.4527 103.416 25.4527 103.488 25.4527C103.56 25.4527 103.632 25.4527 103.705 25.4164C103.777 25.4164 103.849 25.3801 103.957 25.3801C104.029 25.3801 104.101 25.3438 104.174 25.3075L104.246 25.6342C104.174 25.6705 104.101 25.6705 104.029 25.7069C103.957 25.7432 103.849 25.7432 103.777 25.7432C103.669 25.7432 103.596 25.7795 103.488 25.7795C103.38 25.7795 103.308 25.7795 103.236 25.7795C102.947 25.7795 102.695 25.7432 102.514 25.6342C102.298 25.5616 102.154 25.4164 102.045 25.2712C101.937 25.1259 101.829 24.9081 101.793 24.6902C101.721 24.4724 101.721 24.2182 101.721 23.9277C101.721 23.7825 101.721 23.6736 101.757 23.5283C101.793 23.3831 101.793 23.2379 101.865 23.0926C101.901 22.9474 101.973 22.8022 102.045 22.6932C102.117 22.548 102.226 22.4391 102.334 22.3665C102.442 22.2575 102.586 22.1849 102.767 22.1486C102.875 22.1123 103.055 22.076 103.272 22.076Z" fill="#414042"/>
<path d="M105.761 25.8162V22.5121H104.607V22.149H107.384V22.5121H106.23V25.8162H105.761Z" fill="#414042"/>
<path d="M107.925 25.8162V22.149H110.162V22.5121H108.394V23.7103H109.873V24.037H108.394V25.4531H110.234V25.8162H107.925Z" fill="#414042"/>
<path d="M110.918 25.8162V22.149H111.387V23.6739H112.037C112.109 23.6739 112.145 23.6739 112.217 23.6376C112.289 23.6376 112.361 23.6013 112.397 23.565C112.47 23.5287 112.506 23.4561 112.578 23.3835C112.614 23.3109 112.686 23.2019 112.686 23.093L112.938 22.149H113.371L113.155 23.1293C113.119 23.3109 113.047 23.4561 112.938 23.565C112.866 23.6739 112.758 23.7829 112.614 23.8192C112.794 23.8555 112.938 23.9281 113.047 24.0733C113.155 24.1823 113.227 24.3275 113.263 24.509L113.588 25.8162H113.155L112.83 24.6543C112.794 24.5454 112.758 24.4364 112.686 24.3638C112.614 24.2912 112.578 24.2186 112.506 24.1823C112.433 24.146 112.361 24.1096 112.289 24.1096C112.217 24.1096 112.145 24.0733 112.073 24.0733H111.423V25.8525H110.918V25.8162Z" fill="#414042"/>
<path d="M116.185 25.8162V22.4758H114.995V22.8388C114.995 23.1656 114.959 23.4924 114.959 23.7466C114.959 24.0007 114.923 24.2549 114.887 24.4727C114.851 24.6906 114.815 24.8721 114.778 25.0537C114.742 25.2352 114.67 25.3441 114.598 25.4894C114.526 25.5983 114.418 25.7072 114.273 25.7799C114.129 25.8525 113.985 25.8888 113.805 25.9251L113.732 25.5983C113.949 25.5257 114.093 25.4531 114.201 25.3441C114.31 25.2352 114.382 25.09 114.454 24.9084C114.526 24.7269 114.562 24.4727 114.562 24.1823C114.598 23.8918 114.598 23.4924 114.634 23.0204L114.67 22.149H116.69V25.8162H116.185Z" fill="#414042"/>
<path d="M117.52 25.8162V22.149H119.756V22.5121H117.989V23.7103H119.468V24.037H117.989V25.4531H119.829V25.8162H117.52Z" fill="#414042"/>
<path d="M122.678 25.8153V24.0725H120.983C120.983 24.3629 120.983 24.6534 120.983 24.9439C120.983 25.2344 120.983 25.5248 120.983 25.8153H120.514V22.1481H120.983C120.983 22.4023 120.983 22.6564 120.983 22.9106C120.983 23.1648 120.983 23.4189 120.983 23.6731H122.678V22.1118H123.147V25.779H122.678V25.8153Z" fill="#414042"/>
<path d="M126.682 22.1481V25.8153H126.25V22.838L124.446 25.8153H123.977V22.1481H124.41V25.0891L126.213 22.1118L126.682 22.1481Z" fill="#414042"/>
<path d="M127.512 23.1656C127.512 23.0204 127.548 22.8752 127.584 22.7662C127.62 22.6573 127.692 22.5484 127.8 22.4394C127.909 22.3305 128.017 22.2942 128.125 22.2216C128.269 22.1853 128.414 22.149 128.594 22.149H129.856V25.8162H129.388V24.2186H128.919C128.81 24.2186 128.738 24.2186 128.63 24.2549C128.558 24.2549 128.45 24.2912 128.378 24.3275C128.305 24.3638 128.233 24.4364 128.197 24.509C128.125 24.5817 128.089 24.6906 128.053 24.7995L127.764 25.8162H127.295L127.584 24.7632C127.62 24.618 127.692 24.4727 127.764 24.3638C127.836 24.2549 127.945 24.146 128.089 24.1097C127.873 24.037 127.728 23.9281 127.62 23.7466C127.548 23.6013 127.512 23.3835 127.512 23.1656ZM129.388 23.8555V22.4758H128.666C128.558 22.4758 128.486 22.4758 128.378 22.5121C128.305 22.5484 128.233 22.5847 128.161 22.621C128.089 22.6936 128.053 22.7662 128.017 22.8388C127.981 22.9115 127.981 23.0204 127.981 23.1656C127.981 23.3109 128.017 23.4198 128.053 23.5287C128.089 23.6013 128.161 23.6739 128.233 23.7466C128.305 23.7829 128.378 23.8192 128.45 23.8555C128.522 23.8555 128.594 23.8918 128.666 23.8918H129.388V23.8555Z" fill="#414042"/>
</svg>
